PathFileType	4	(X/Y/Z)	C:/Users/beibeiliu/ov580/test_trc/capture2\sequence.37_training_dense_left.trc
DataRate	CameraRate	NumFrames	NumMarkers	Units	OrigDataRate	OrigDataStartFrame	OrigNumFrames
120	120	22	19	mm	120	232	370
Frame#	Time	ThumbCMC			ThumbMCP			ThumbIP			ThumbTip			IndexMCP			IndexPIP			IndexTip			MiddleMCP			MiddlePIP			MiddleTip			RingMCP			RingPIP			RingTip			PinkyMCP			PinkyPIP			PinkyTip			BackHand1			BackHand2			BackHand3	
		X0	Y0	Z0	X1	Y1	Z1	X2	Y2	Z2	X3	Y3	Z3	X4	Y4	Z4	X5	Y5	Z5	X6	Y6	Z6	X7	Y7	Z7	X8	Y8	Z8	X9	Y9	Z9	X10	Y10	Z10	X11	Y11	Z11	X12	Y12	Z12	X13	Y13	Z13	X14	Y14	Z14	X15	Y15	Z15	X16	Y16	Z16	X17	Y17	Z17	X18	Y18	Z18	
231	1.925	-153.542	58.5183	-2.65448	-136.097	67.9911	-27.1666	-129.819	68.6703	-51.7464	-124.031	68.8078	-74.3718	-151.985	45.7174	-69.9746	-122.234	45.9115	-73.7259	-114.936	41.5477	-36.7981	-146.265	24.7205	-70.2232	-114.546	28.7506	-62.9746	-118.768	35.1112	-27.0712	-140.633	5.47347	-63.7671	-111.846	8.97374	-55.1735	-116.144	23.3492	-24.8577	-141.821	-9.17188	-49.6204	-113.042	-0.036263	-49.2376	-104.953	14.1692	-23.7455	-179.125	3.39195	-18.545	-179.784	7.32863	12.3245	-182.12	34.7243	-6.65802	
232	1.93333	-153.193	60.6743	-2.24925	-136.448	63.6326	-26.1662	-129.294	70.2069	-50.6231	-123.832	70.2088	-71.1537	-150.598	45.7581	-70.2991	-120.915	48.2183	-71.7718	-113.912	45.1478	-39.4268	-145.1	22.3337	-69.9523	-114.281	29.5129	-62.8029	-116.248	33.6125	-28.873	-138.763	3.65108	-63.6272	-113.218	13.8783	-54.711	-118.021	24.2421	-22.0715	-139.57	-6.60586	-52.5276	-111.447	0.160299	-46.2052	-108.957	17.1723	-17.9983	-178.513	5.8636	-15.4807	-178.957	7.76749	13.4854	-182.527	36.9664	-3.19271	
233	1.94167	-152.832	60.5444	2.02576	-136.402	65.6192	-23.3167	-128.39	72.6407	-48.535	-124.93	71.7709	-76.6337	-151.563	47.2307	-67.698	-119.118	47.21	-70.0076	-115.608	42.3916	-36.2163	-147.331	24.8966	-67.0557	-115.952	27.462	-64.5337	-119.447	33.4394	-24.9224	-143.931	8.05527	-60.9372	-112.352	11.0837	-53.359	-120.133	26.3496	-20.2393	-140.861	-6.97901	-51.2069	-112.093	3.60901	-45.5473	-108.67	13.6959	-18.7368	-179.181	1.39048	-17.177	-179.943	7.53595	13.6479	-182.689	35.9441	-8.31845	
234	1.95	-153.563	61.9745	-2.16403	-135.227	67.2628	-22.5727	-129.624	72.5338	-50.7054	-124.798	69.7032	-72.1915	-149.453	47.432	-70.0188	-118.106	46.6366	-67.6593	-115.86	45.3191	-35.4527	-144.415	25.4322	-69.8978	-113.697	29.3939	-60.5208	-117.95	33.9391	-26.6318	-138.25	7.3731	-64.0103	-113.2	13.9876	-53.1763	-120.121	23.6855	-19.5553	-140.933	-5.63872	-50.5052	-111.629	0.803201	-46.347	-106.785	16.3056	-18.0593	-179.337	5.07088	-19.1127	-181.182	10.8633	11.9882	-183.235	37.3464	-6.62577	
235	1.95833	-152.925	62.0125	2.41946	-135.952	69.0686	-24.2076	-128.02	74.52	-49.0313	-125.241	69.9052	-74.0831	-149.987	44.2409	-69.7759	-120.471	46.4537	-70.8909	-116.893	45.9008	-33.9804	-142.966	22.4727	-69.7036	-113.535	30.9847	-60.6755	-117.368	33.707	-26.2386	-138.258	5.68268	-62.7635	-112.012	15.0075	-51.262	-117.203	23.1444	-20.5712	-138.649	-9.30081	-51.8426	-111.324	2.16902	-45.0905	-106.718	14.889	-20.2335	-177.365	3.62658	-17.0877	-179.008	6.67343	15.0213	-183.747	40.3227	-8.7385	
236	1.96667	-151.768	64.9276	1.17244	-134.186	71.0304	-23.4545	-127.785	74.898	-50.6437	-123.903	72.815	-73.8118	-147.979	48.5052	-70.5341	-119.94	45.7593	-69.6559	-117.172	42.9133	-33.211	-147.209	24.9344	-66.6745	-113.07	27.9784	-60.0212	-116.009	34.3545	-27.4681	-141.809	7.5307	-61.2927	-110.119	13.5493	-49.3703	-118.02	23.3554	-19.1604	-139.714	-10.5576	-51.1825	-110.538	3.35306	-45.801	-108.329	18.3658	-19.2707	-178.674	7.36634	-16.3806	-180.645	7.1129	12.7985	-182.001	38.1213	-7.03863	
237	1.975	-153.394	58.7542	-2.10709	-135.815	68.4536	-26.7094	-128.852	69.9149	-48.8972	-123.092	72.6749	-73.4434	-147.799	47.0916	-70.876	-120.59	48.3842	-70.9261	-115.505	42.6083	-37.1646	-145.046	26.2242	-69.2894	-113.827	30.7868	-63.1481	-116.232	33.8324	-25.9753	-140.798	5.85784	-61.8408	-111.467	13.6893	-54.566	-115.342	26.3588	-23.3018	-138.753	-5.08899	-51.7909	-112.231	-0.336264	-48.6468	-108.091	16.8183	-17.8271	-176.551	3.24191	-16.9333	-180.645	8.74908	10.9193	-182.828	35.3701	-5.68459	
238	1.98333	-153.713	63.8449	-0.363359	-135.545	69.8837	-22.2362	-128.206	75.5545	-50.4413	-124.494	72.8489	-72.6125	-150.325	48.1242	-68.939	-117.775	48.5008	-67.9762	-114.993	48.8136	-36.0747	-145.314	24.4883	-69.7596	-113.405	26.1686	-63.3724	-115.447	36.7304	-28.0165	-139.41	7.88649	-63.4556	-112.353	14.1022	-56.9183	-114.199	25.9369	-24.537	-137.607	-8.87207	-52.4632	-111.364	2.81456	-48.1074	-105.91	16.0838	-20.9756	-176.968	6.76268	-15.6669	-180.698	6.28304	10.7313	-180.853	38.8612	-3.13456	
239	1.99167	-153.826	64.4721	0.724871	-136.529	68.256	-23.6556	-129.468	74.5406	-49.8636	-123.98	74.9406	-75.0995	-149.658	43.2717	-68.766	-119.52	48.828	-70.8673	-113.976	47.2989	-35.9293	-146.447	22.6636	-70.0493	-114.634	24.294	-66.2078	-114.246	34.8607	-29.9937	-141.313	4.24132	-62.3935	-111.039	14.2173	-56.6712	-111.139	23.4706	-27.3074	-142.014	-7.94691	-49.2314	-109.734	2.14548	-49.0844	-103.13	16.1266	-26.5784	-175.848	3.63063	-18.1401	-180.142	6.91688	15.0771	-182.4	37.4322	-5.55106	
240	2	-153.361	63.2541	-1.58044	-136.499	71.2355	-20.7704	-130.163	77.3454	-48.539	-125.862	71.5437	-72.1765	-150	42.3287	-68.6832	-117.944	44.6069	-69.5238	-111.237	47.4484	-40.8783	-144.657	19.6979	-71.8118	-117.061	23.6147	-70.8616	-112.085	35.8447	-32.5882	-142.201	7.0397	-64.1683	-112.727	12.5278	-60.378	-110.289	24.672	-27.4597	-138.245	-11.8215	-53.1684	-110.66	-1.47938	-51.631	-101.95	16.9809	-28.4561	-177.064	2.58118	-15.6042	-177.691	9.51893	12.9925	-182.605	38.3359	-5.66871	
241	2.00833	-153.955	60.0716	3.85335	-137.225	70.9037	-21.1914	-132.541	77.7253	-50.503	-127.154	72.669	-69.6611	-151.822	44.1481	-68.6837	-122.297	45.4836	-74.6989	-110.902	45.3132	-43.5441	-149.425	22.3767	-70.9432	-116.994	26.5691	-72.3529	-109.591	34.4553	-36.8558	-143.632	4.55038	-64.9167	-110.004	10.4665	-60.7667	-109.295	25.745	-30.7634	-139.57	-12.6442	-52.1891	-110.754	-1.37263	-53.0144	-99.9612	13.1823	-29.4478	-177.58	2.62241	-14.78	-177.502	6.33729	15.0352	-180.723	34.3294	-7.78581	
242	2.01667	-154.479	62.7739	2.3401	-139.694	67.3336	-22.4967	-133.597	78.1792	-47.6773	-128.555	75.7299	-73.7976	-151.604	44.1256	-71.3213	-122.133	43.1872	-75.6191	-109.792	44.8544	-44.7673	-148.75	20.2651	-71.7735	-116.949	27.3363	-72.8153	-108.148	32.1956	-39.7606	-144.049	0.0375186	-64.1399	-113.675	12.6622	-63.647	-107.048	23.6597	-31.1244	-141.154	-11.5367	-52.875	-113.96	-1.1844	-56.7853	-98.2739	14.0687	-31.582	-176.964	6.20852	-15.4918	-177.49	8.48977	15.947	-182.289	37.2361	-6.97303	
243	2.025	-155.572	61.9672	3.07873	-140.223	71.8465	-20.0329	-134.928	76.6099	-46.6115	-129.621	75.1242	-70.5074	-154.682	40.1634	-70.4717	-125.942	39.7594	-78.8576	-108.072	45.7871	-49.5685	-149.962	21.2619	-71.8358	-118.45	22.7061	-75.0894	-107.906	30.1036	-40.1417	-145.949	0.921205	-61.4621	-116.634	9.93431	-67.2587	-106.725	23.044	-32.7736	-140.543	-11.3904	-53.1123	-113.279	-4.505	-57.4911	-98.4661	12.7066	-36.7546	-175.959	5.68672	-18.1225	-179.131	9.70762	14.1235	-182.061	33.163	-4.20039	
244	2.03333	-155.323	61.4591	1.97498	-141.567	75.2068	-18.1676	-136.144	79.1149	-43.4969	-130.196	75.4417	-72.3098	-157.409	41.264	-67.9235	-129.678	38.7806	-82.07	-108.215	47.5236	-56.0539	-152.315	21.3171	-72.2296	-121.133	20.001	-76.7433	-106.252	29.7078	-44.1913	-146.568	3.66288	-63.5028	-114.304	11.0753	-65.526	-105.234	21.005	-34.5996	-142.68	-12.4471	-50.633	-115.013	-7.74096	-58.4186	-95.8509	11.6688	-39.5958	-175.783	2.41294	-13.1771	-179.665	8.028	13.1471	-180.888	39.7149	-2.33737	
245	2.04167	-156.57	63.437	6.20307	-142.639	76.2115	-21.935	-136.939	81.8054	-42.8061	-130.445	74.5989	-66.5048	-156.58	39.5936	-68.9433	-129.474	39.5604	-81.3679	-107.202	46.8686	-57.2804	-154.338	22.2684	-68.6986	-122.638	20.5191	-77.9961	-105.355	28.3404	-45.5896	-146.93	4.70004	-64.2655	-114.533	8.42815	-65.9678	-104.137	19.1111	-38.379	-142.625	-14.7403	-49.0023	-116.54	-5.84481	-59.3976	-94.8523	11.8797	-42.2023	-175.9	3.48312	-15.8429	-178.411	8.55885	15.0022	-181.65	38.6748	-2.65906	
246	2.05	-156.943	65.4332	4.26751	-144.341	75.068	-21.7009	-138.613	79.7031	-41.2933	-131.815	72.8368	-66.1905	-156.011	39.232	-69.7242	-128.174	40.1938	-81.8406	-108.406	42.8682	-55.8396	-153.572	21.8964	-70.1627	-120.005	23.4638	-77.1941	-104.568	33.2486	-48.9403	-147.039	-0.322236	-62.1899	-115.462	11.7166	-67.5199	-104.64	20.9226	-36.8591	-141.11	-11.2049	-51.4731	-113.596	-2.85955	-58.9598	-96.7896	10.6596	-43.9686	-176.538	5.97112	-16.7555	-177.863	8.73673	17.5187	-181.098	36.9807	-6.04512	
247	2.05833	-157.283	62.7956	4.88338	-143.655	72.6765	-16.7581	-140.171	79.2323	-45.0969	-133.312	71.4296	-65.1839	-157.807	44.1176	-69.1078	-129.868	41.5537	-82.4397	-107.337	46.8628	-58.6231	-152.686	23.0061	-70.2978	-122.353	25.1069	-78.8732	-104.915	33.8733	-45.5585	-147.187	2.20248	-62.1725	-113.775	7.53749	-66.2336	-104.23	21.962	-36.2054	-141.83	-12.7876	-49.9154	-115.18	-3.05568	-59.057	-95.5419	14.4546	-44.9468	-176	2.55391	-15.5913	-179.214	8.33749	15.2416	-181.782	35.9225	-0.809508	
248	2.06667	-157.096	65.7216	5.94913	-145.079	75.066	-15.8744	-140.275	81.0875	-40.8332	-133.606	69.5958	-66.4398	-157.612	41.7799	-65.2422	-129.873	42.1031	-81.8939	-107.292	44.0304	-56.6962	-153.031	20.7496	-68.7275	-120.523	27.359	-78.7882	-103.531	34.4192	-49.7758	-147.214	4.62634	-61.7031	-116.096	11.5256	-67.8183	-103.375	24.1411	-41.0059	-142.559	-11.9157	-48.7227	-114.873	-4.4222	-58.0532	-92.646	13.6933	-40.8402	-175.401	6.42803	-15.6227	-180.493	10.3255	15.9691	-179.065	37.2384	-0.65681	
249	2.075	-157.867	65.5827	4.81484	-145.678	76.0489	-16.6722	-140.931	81.7826	-44.8464	-133.527	73.2588	-66.1812	-156.931	42.0048	-68.7374	-131.907	41.6277	-81.9245	-108.13	46.3479	-59.0742	-153.607	22.9882	-67.471	-122.873	23.612	-78.6062	-104.207	31.2065	-46.7065	-146.905	4.02381	-61.7696	-114.135	10.8984	-66.4548	-104.88	24.5948	-35.954	-142.883	-10.6331	-50.5876	-115.013	-6.75159	-58.3026	-92.777	11.0449	-42.3163	-177.468	2.53761	-14.0387	-178.323	10.5484	16.6759	-181.597	40.1879	0.161343	
250	2.08333	-157.785	61.1043	4.68515	-144.672	76.7257	-17.7454	-140.207	81.3524	-44.2618	-134.023	74.3359	-64.0155	-158.934	45.4069	-67.9783	-131.914	38.9543	-82.2294	-106.611	45.8651	-54.6855	-151.927	21.3905	-71.9315	-122.241	26.511	-78.4311	-104.374	31.9685	-48.89	-147.263	5.93159	-61.8022	-114.758	7.177	-66.0885	-104.09	22.7398	-39.6694	-143.91	-10.2284	-48.8911	-114.97	-5.73717	-57.9495	-94.2239	10.6622	-43.7321	-178.115	6.99399	-13.7131	-178.876	10.5623	16.8837	-180.471	37.3242	-0.325892	
251	2.09167	-157.865	65.1305	6.80948	-144.093	76.0569	-15.2154	-139.398	81.0535	-42.9576	-134.428	71.9044	-66.6153	-157.617	41.9286	-69.0349	-130.399	40.7355	-81.6191	-108.521	46.0316	-59.4096	-152.57	23.5404	-70.6861	-123.06	23.6819	-78.6583	-105.05	33.209	-48.7379	-145.889	3.74278	-64.7125	-116.144	10.0059	-68.3111	-104.361	22.5032	-38.1816	-143.546	-10.2058	-47.4109	-115.625	-5.71699	-59.1213	-94.3028	15.0102	-42.6274	-177.857	6.7223	-15.7947	-180.245	9.45039	17.3523	-182.532	34.3382	-2.05435	
252	2.1	-157.812	62.0928	6.59343	-145.933	77.0596	-20.3887	-140.445	82.8527	-42.473	-133.669	76.9793	-67.3989	-159.881	43.673	-66.6143	-129.202	39.6289	-80.7859	-107.156	45.0519	-57.1256	-152.523	20.8318	-71.7249	-123.68	25.1884	-79.3026	-105.486	35.9745	-45.618	-146.884	3.6959	-63.2306	-118.537	8.34349	-68.8145	-103.784	20.2173	-39.9829	-141.061	-14.4097	-50.2623	-114.646	-1.55045	-58.0845	-97.221	16.234	-42.3364	-176.383	6.34866	-12.9774	-180.401	9.63027	17.0258	-183.042	36.6389	-2.05231	
